# xmcd
#
# Track frame offsets:
#	150
#	14795
#	39012
#
# Disc length: 842 seconds
#
# Revision: 1
# Processed by: cddbd v1.4PL0 Copyright (c) Steve Scherf et al.
# Submitted via: EasyCDDAExtractor 5.1.0
#
DISCID=1a034803
DTITLE=Chance Wayne and Dr. Delay - O.K. Fred
DYEAR=1993
DGENRE=Dance
TTITLE0=O.K. Fred  (Radio Edit)
TTITLE1=O.K. Fred (Club Party Mix)
TTITLE2=O.K. Fred (Dub Mix)
EXTD=
EXTT0=
EXTT1=
EXTT2=
PLAYORDER=
